<svg version="1.1" id="Слой_1" xmlns:x="http://ns.adobe.com/Extensibility/1.0/" xmlns:i="http://ns.adobe.com/AdobeIllustrator/10.0/" xmlns:graph="http://ns.adobe.com/Graphs/1.0/" xmlns="http://www.w3.org/2000/svg" xmlns:xlink="http://www.w3.org/1999/xlink" x="0px" y="0px" viewBox="0 0 65 100" style="enable-background:new 0 0 65 100;" xml:space="preserve">
<style type="text/css">
	.st0{fill:none;stroke:#9ba2a6;stroke-width:0.9705;stroke-miterlimit:10;}
	.st1{fill:#9ba2a6}
</style>
<switch>
	<g i:extraneous="self">
		<g>
			<g>
				<path class="st0" d="M24.93,8.59c-0.01-1.31,0.34-2.42,1.04-3.34c0.7-0.92,1.73-1.38,3.07-1.39c1.24-0.01,2.27,0.4,3.08,1.21      c0.82,0.81,1.23,2.02,1.24,3.61c0.01,1.55-0.4,2.74-1.21,3.58c-0.82,0.84-1.83,1.26-3.03,1.27c-1.19,0.01-2.19-0.4-2.99-1.22      C25.34,11.49,24.94,10.25,24.93,8.59z"/>
				<path class="st0" d="M29.12,5.41c-0.6,0-1.1,0.25-1.5,0.73c-0.4,0.48-0.59,1.37-0.58,2.66c0.01,1.17,0.21,2,0.62,2.47      c0.41,0.48,0.91,0.71,1.5,0.71c0.61,0,1.11-0.25,1.51-0.73c0.4-0.48,0.59-1.37,0.58-2.65c-0.01-1.18-0.21-2.01-0.62-2.49      C30.23,5.64,29.72,5.41,29.12,5.41z"/>
				<path class="st0" d="M29.2,21.12L39.28,4.1c0.27-0.43,0.59-0.58,1.02-0.58l0.56,0c0.32,0,0.55,0.27,0.38,0.57L31.21,21.11      c-0.25,0.44-0.59,0.58-1.02,0.59l-0.6,0C29.26,21.7,29.05,21.38,29.2,21.12z"/>
				<g>
					<path class="st0" d="M37.38,16.39c-0.01-1.31,0.34-2.43,1.04-3.34c0.7-0.91,1.73-1.38,3.09-1.38c1.24-0.01,2.27,0.4,3.08,1.21       c0.82,0.81,1.23,2.02,1.24,3.61c0.01,1.55-0.4,2.74-1.21,3.58c-0.82,0.84-1.83,1.26-3.04,1.27c-1.19,0.01-2.19-0.4-2.99-1.22       C37.79,19.29,37.39,18.05,37.38,16.39z"/>
					<path class="st0" d="M41.59,13.21c-0.61,0-1.11,0.25-1.51,0.73c-0.4,0.48-0.59,1.37-0.58,2.66c0.01,1.16,0.21,1.99,0.62,2.47       c0.41,0.48,0.91,0.72,1.5,0.72c0.62,0,1.13-0.25,1.52-0.73c0.4-0.48,0.59-1.37,0.58-2.65c-0.01-1.18-0.21-2.01-0.62-2.49       C42.69,13.45,42.19,13.21,41.59,13.21z"/>
				</g>
			</g>
			<path class="st1" d="M66.92,44.94L55.2,22c-0.11-0.22-0.3-0.38-0.53-0.45c-0.23-0.07-0.48-0.05-0.69,0.06l-8.76,4.48     c-0.45,0.23-0.63,0.78-0.4,1.23l0.85,1.66c-3.4-1.09-9.11-2.81-11.29-2.76c-1.38,0.03-3,0.73-4.52,1.64l-9-0.18l0.52-1.61     c0.15-0.48-0.11-0.99-0.59-1.15l-10.14-3.26c-0.23-0.07-0.48-0.05-0.69,0.06c-0.21,0.11-0.38,0.3-0.45,0.53L1.61,46.76     c-0.15,0.48,0.11,0.99,0.59,1.15l10.14,3.26c0.09,0.03,0.19,0.04,0.28,0.04c0.14,0,0.29-0.03,0.42-0.1     c0.21-0.11,0.38-0.3,0.45-0.53l0.87-2.7l1.5,0.88c-0.57,1.1-0.54,2.3,0.18,3.13c0.45,0.52,1.13,0.8,1.89,0.8     c0.21,0,0.43-0.02,0.65-0.07c-0.17,0.94,0.03,1.85,0.63,2.54c0.54,0.62,1.35,0.96,2.27,0.96c0.52,0,1.05-0.11,1.57-0.31     c-0.06,0.8,0.14,1.54,0.64,2.12c0.52,0.59,1.3,0.92,2.2,0.92c0.49,0,0.99-0.09,1.5-0.27c0.03,1.06,0.55,1.97,1.44,2.34     c0.26,0.11,0.53,0.16,0.81,0.16c0.57,0,1.14-0.22,1.63-0.61c0.94,0.57,2.24,1.01,3.37,1.01c0.58,0,1.12-0.12,1.54-0.4l0.03-0.02     c0.34-0.23,0.92-0.61,1.25-1.14c0.7,0.26,1.41,0.38,2.09,0.38c0.83,0,1.6-0.18,2.19-0.52l0.03-0.02     c0.32-0.18,0.75-0.43,1.11-0.78c0.2-0.2,0.34-0.4,0.44-0.59c0.43,0.14,0.87,0.21,1.31,0.21c0.86,0,1.72-0.26,2.53-0.79l0.04-0.03     c0.74-0.48,2.07-1.36,1.92-2.66c0.79-0.04,1.58-0.3,2.32-0.78l0.04-0.03c0.77-0.5,2.21-1.44,1.89-2.86     c-0.05-0.22-0.1-0.43-1.09-1.48l3.1-2.02l1.16,2.26c0.16,0.32,0.48,0.5,0.81,0.5c0.14,0,0.28-0.03,0.41-0.1l8.76-4.48     c0.22-0.11,0.38-0.3,0.45-0.53C67.05,45.4,67.03,45.15,66.92,44.94z M12.02,49.16l-8.4-2.71l7.33-22.79l8.4,2.71L12.02,49.16z      M19.3,50.25c-0.43,0.37-0.94,0.6-1.38,0.6c-0.16,0-0.38-0.03-0.5-0.17c-0.28-0.32-0.05-1.18,0.67-1.81     c0.43-0.37,0.94-0.6,1.38-0.6c0.16,0,0.38,0.03,0.5,0.17C20.25,48.76,20.02,49.62,19.3,50.25z M23.48,53.42     c-0.61,0.54-1.37,0.86-2.01,0.86c-0.27,0-0.64-0.06-0.88-0.33c-0.47-0.54-0.21-1.82,0.91-2.8c0.61-0.54,1.37-0.86,2.01-0.86     c0.27,0,0.64,0.06,0.88,0.33C24.86,51.16,24.6,52.44,23.48,53.42z M28.18,56.01c-0.72,0.63-1.58,1.01-2.29,1.01     c-0.26,0-0.6-0.05-0.82-0.29c-0.47-0.54-0.09-1.93,1.12-2.99c0.72-0.63,1.58-1.01,2.29-1.01c0.26,0,0.6,0.05,0.82,0.29     C29.76,53.56,29.39,54.95,28.18,56.01z M30.71,58.21c-0.29,0.71-0.81,1.03-1.08,1.03c-0.04,0-0.07-0.01-0.11-0.02     c-0.26-0.11-0.44-0.78-0.12-1.55c0.29-0.71,0.81-1.03,1.08-1.03c0.04,0,0.07,0.01,0.11,0.02C30.84,56.76,31.02,57.44,30.71,58.21     z M50.47,52.79l-0.04,0.03c-0.72,0.47-1.78,0.81-2.99,0.03c-0.67-0.69-1.61-1.62-2.96-2.9c-2.2-2.1-4.44-4.14-4.81-4.46     c-0.38-0.33-0.97-0.29-1.3,0.09c-0.33,0.38-0.29,0.97,0.09,1.3c0.82,0.71,4.7,4.31,7.06,6.66c0.05,0.14,0.14,0.26,0.26,0.36     c0.15,0.13,0.31,0.25,0.47,0.36c0.48,0.49,0.84,0.89,1.01,1.12c-0.1,0.19-0.46,0.48-1.07,0.88l-0.04,0.03     c-0.8,0.52-2.05,0.9-3.44-0.31c-0.07-0.06-0.15-0.11-0.24-0.15c-0.53-0.56-1.36-1.39-2.71-2.66c-1.69-1.59-3.44-3.16-3.85-3.52     c-0.38-0.33-0.97-0.29-1.3,0.09c-0.33,0.38-0.29,0.97,0.09,1.3c1.44,1.25,6.12,5.56,6.92,6.6c-0.16,0.18-0.59,0.43-0.77,0.53     l-0.04,0.02c-0.74,0.42-2.38,0.45-3.71-0.52c-0.25-0.35-0.63-0.81-1.17-1.45c-0.68-0.8-1.6-1.81-1.96-2.12     c-0.38-0.33-0.97-0.29-1.3,0.09c-0.33,0.38-0.29,0.97,0.09,1.3c0.42,0.37,1.79,1.9,2.58,2.91c0.05,0.17,0.14,0.33,0.28,0.45     c0.05,0.04,0.09,0.08,0.14,0.11c0.02,0.03,0.04,0.06,0.05,0.08c-0.16,0.17-0.5,0.39-0.64,0.49l-0.03,0.02     c-0.37,0.24-1.74,0.01-2.77-0.56c0.01-0.03,0.02-0.05,0.04-0.08c0.69-1.68,0.2-3.42-1.13-3.96c-0.05-0.02-0.11-0.04-0.16-0.06     c0.38-1.15,0.26-2.28-0.44-3.08c-0.52-0.59-1.3-0.92-2.2-0.92c-0.66,0-1.35,0.17-2.02,0.48c0.01-0.73-0.21-1.42-0.69-1.96     c-0.54-0.62-1.35-0.96-2.27-0.96c-0.52,0-1.05,0.11-1.57,0.31c-0.01-0.57-0.2-1.1-0.58-1.53c-0.45-0.52-1.13-0.8-1.89-0.8     c-0.82,0-1.69,0.33-2.42,0.91l-2.12-1.24l5.34-16.58l6.99,0.14c-0.71,0.56-1.33,1.1-1.79,1.54c-1.55,1.48-1.46,4.21-1.39,6.41     c0.01,0.42,0.03,0.81,0.02,1.16c0,1.47,0,1.78,0,1.78c0,0.42,0.28,0.78,0.68,0.89c1.4,0.38,4.15,0.26,5.61-1.2     c0.92-0.92,1.11-2.04,1.25-2.86c0.04-0.26,0.11-0.64,0.18-0.76c1.31-0.92,2.81-1.71,3.26-1.71c0.86,0.27,2.12,2.08,3.13,3.54     c0.7,1,1.37,1.97,2.04,2.7c0.05,0.12,0.13,0.23,0.24,0.33c1.4,1.22,9.87,8.99,11.04,10.47C51.42,52.11,51.06,52.4,50.47,52.79z      M50.97,48.67c-0.8-0.79-1.88-1.82-3.34-3.18c-1.16-1.09-2.35-2.18-3.36-3.11c0.07,0,0.13-0.01,0.2-0.01     c0.21-0.01,0.42-0.03,0.63-0.05c0.84-0.08,1.66-0.21,2.28-0.31c0.61-0.1,1.02-0.18,1.02-0.18s-0.41-0.03-1.03-0.1     c-0.61-0.07-1.43-0.18-2.23-0.33c-0.2-0.04-0.4-0.08-0.59-0.12c-0.19-0.04-0.38-0.08-0.56-0.13c-0.36-0.09-0.69-0.19-0.95-0.28     c-0.13-0.05-0.24-0.1-0.34-0.14c-0.05-0.02-0.09-0.04-0.12-0.06c-0.01-0.01-0.03-0.02-0.04-0.02c-0.06-0.05-0.12-0.1-0.19-0.14     c-0.71-0.38-1.72-1.84-2.62-3.13c-1.38-1.99-2.68-3.86-4.19-4.28c-0.47-0.13-1.24-0.14-3.11,0.93c-0.52,0.3-0.99,0.6-1.31,0.81     l-0.26-2.34l-0.73,3.35c-0.17,0.37-0.24,0.79-0.31,1.2c-0.11,0.67-0.23,1.36-0.74,1.87c-0.68,0.68-2.1,0.91-3.14,0.83     c0-0.25,0-0.57,0-0.99c0-0.38-0.01-0.79-0.03-1.22c-0.05-1.74-0.13-4.11,0.82-5.02c0.91-0.87,2.32-2.01,3.78-2.92     c0.03-0.02,0.07-0.04,0.1-0.06c1.35-0.83,2.73-1.45,3.79-1.47c0.02,0,0.05,0,0.07,0c2.18,0,9.05,2.14,12.37,3.24l7.43,14.55     l0.27,0.55L50.97,48.67z M57.74,48.6L46.85,27.29l7.14-3.65l10.89,21.32L57.74,48.6z"/>
		</g>
	</g>
</switch>
</svg>